<svg xmlns="http://www.w3.org/2000/svg" viewBox="0 0 400 400" fill="none">
  <rect width="400" height="400" fill="#F9FAFB"/>
  <ellipse cx="200" cy="320" rx="90" ry="10" fill="#000" opacity="0.04"/>
  <!-- Rope arc -->
  <path d="M100 170 Q200 320 300 170" stroke="#1E293B" stroke-width="4" fill="none" stroke-linecap="round"/>
  <!-- Left handle -->
  <rect x="85" y="105" width="30" height="70" rx="8" fill="url(#hg)"/>
  <rect x="92" y="100" width="16" height="15" rx="4" fill="#475569"/>
  <rect x="90" y="168" width="20" height="8" rx="4" fill="#64748B"/>
  <!-- Right handle -->
  <rect x="285" y="105" width="30" height="70" rx="8" fill="url(#hg2)"/>
  <rect x="292" y="100" width="16" height="15" rx="4" fill="#475569"/>
  <rect x="290" y="168" width="20" height="8" rx="4" fill="#64748B"/>
  <!-- Grip texture -->
  <line x1="92" y1="125" x2="108" y2="125" stroke="#334155" stroke-width="1.5" opacity="0.3"/>
  <line x1="92" y1="135" x2="108" y2="135" stroke="#334155" stroke-width="1.5" opacity="0.3"/>
  <line x1="92" y1="145" x2="108" y2="145" stroke="#334155" stroke-width="1.5" opacity="0.3"/>
  <line x1="92" y1="155" x2="108" y2="155" stroke="#334155" stroke-width="1.5" opacity="0.3"/>
  <line x1="292" y1="125" x2="308" y2="125" stroke="#334155" stroke-width="1.5" opacity="0.3"/>
  <line x1="292" y1="135" x2="308" y2="135" stroke="#334155" stroke-width="1.5" opacity="0.3"/>
  <line x1="292" y1="145" x2="308" y2="145" stroke="#334155" stroke-width="1.5" opacity="0.3"/>
  <line x1="292" y1="155" x2="308" y2="155" stroke="#334155" stroke-width="1.5" opacity="0.3"/>
  <defs>
    <linearGradient id="hg" x1="85" y1="105" x2="115" y2="175"><stop stop-color="#475569"/><stop offset="1" stop-color="#1E293B"/></linearGradient>
    <linearGradient id="hg2" x1="285" y1="105" x2="315" y2="175"><stop stop-color="#475569"/><stop offset="1" stop-color="#1E293B"/></linearGradient>
  </defs>
</svg>
