<svg width="40" height="40" viewBox="0 0 40 40" fill="none" xmlns="http://www.w3.org/2000/svg">
  <rect width="40" height="40" rx="20" fill="#7F56D9"/>
  <path d="M12 26V16.5H10.5V14H12V13.2C12 12 12.35 11.1 13.05 10.5C13.75 9.9 14.65 9.6 15.7 9.6C16.15 9.6 16.55 9.65 16.9 9.75C17.25 9.85 17.5 9.92 17.65 10L17.1 12.3C16.99 12.27 16.85 12.23 16.68 12.2C16.52 12.17 16.35 12.15 16.17 12.15C15.73 12.15 15.4 12.26 15.2 12.47C15.03 12.68 14.95 12.97 14.95 13.35V14H17.15V16.5H14.95V26H12ZM21.5 26V18.5L19 22H17.5L20.5 17.5L17.5 13H19L21.5 16.5L24 13H25.5L22.5 17.5L25.5 22H24L21.5 18.5V26H21.5ZM26.5 26V14H29.5V26H26.5Z" fill="white"/>
</svg>
