<svg width="46" height="46" viewBox="0 0 46 46" fill="none" xmlns="http://www.w3.org/2000/svg">
<g filter="url(#filter0_dii_236_12725)">
<path d="M1.76807 9.74318C1.76807 4.85041 5.73445 0.884033 10.6272 0.884033H35.3432C40.236 0.884033 44.2024 4.85041 44.2024 9.74319V34.4592C44.2024 39.352 40.236 43.3183 35.3432 43.3183H10.6272C5.73444 43.3183 1.76807 39.352 1.76807 34.4592V9.74318Z" fill="#FD6F8E"/>
<path d="M10.6274 1.76782H35.3433C39.7478 1.76785 43.3179 5.33889 43.3179 9.74341V34.4592C43.3178 38.8637 39.7478 42.4338 35.3433 42.4338H10.6274C6.22293 42.4338 2.65188 38.8637 2.65186 34.4592V9.74341C2.65186 5.33888 6.22291 1.76782 10.6274 1.76782Z" stroke="#FDFBFF" stroke-width="1.7681"/>
<g clip-path="url(#clip0_236_12725)">
<path d="M17.7623 30.7489L18.1636 29.9612L17.7623 30.7489ZM16.9896 29.9762L17.7773 29.5749L16.9896 29.9762ZM28.9808 29.9762L28.1931 29.5749L28.9808 29.9762ZM28.2081 30.7489L27.8068 29.9612L28.2081 30.7489ZM28.2081 13.4534L27.8068 14.2411L28.2081 13.4534ZM28.9808 14.2261L28.1931 14.6274L28.9808 14.2261ZM17.7623 13.4534L18.1636 14.2411L17.7623 13.4534ZM16.9896 14.2261L17.7773 14.6274L16.9896 14.2261ZM22.9852 26.0794C22.497 26.0794 22.1012 26.4752 22.1012 26.9634C22.1012 27.4517 22.497 27.8475 22.9852 27.8475V26.9634V26.0794ZM22.9941 27.8475C23.4823 27.8475 23.8781 27.4517 23.8781 26.9634C23.8781 26.4752 23.4823 26.0794 22.9941 26.0794V26.9634V27.8475ZM19.6258 13.2607V14.1447H26.3446V13.2607V12.3766H19.6258V13.2607ZM29.1735 16.0896H28.2895V28.1127H29.1735H30.0576V16.0896H29.1735ZM26.3446 30.9416V30.0576H19.6258V30.9416V31.8257H26.3446V30.9416ZM16.7969 28.1127H17.6809V16.0896H16.7969H15.9128V28.1127H16.7969ZM19.6258 30.9416V30.0576C19.1161 30.0576 18.787 30.0569 18.5365 30.0364C18.2964 30.0168 18.2073 29.9835 18.1636 29.9612L17.7623 30.7489L17.3609 31.5366C17.6954 31.7071 18.0431 31.7701 18.3926 31.7987C18.7317 31.8264 19.1453 31.8257 19.6258 31.8257V30.9416ZM16.7969 28.1127H15.9128C15.9128 28.5932 15.9121 29.0068 15.9399 29.346C15.9684 29.6955 16.0315 30.0431 16.2019 30.3776L16.9896 29.9762L17.7773 29.5749C17.755 29.5312 17.7217 29.4421 17.7021 29.202C17.6816 28.9515 17.6809 28.6224 17.6809 28.1127H16.7969ZM17.7623 30.7489L18.1636 29.9612C17.9973 29.8765 17.862 29.7412 17.7773 29.5749L16.9896 29.9762L16.2019 30.3776C16.4562 30.8766 16.8619 31.2823 17.3609 31.5366L17.7623 30.7489ZM29.1735 28.1127H28.2895C28.2895 28.6224 28.2888 28.9515 28.2683 29.202C28.2487 29.4421 28.2154 29.5312 28.1931 29.5749L28.9808 29.9762L29.7685 30.3776C29.939 30.0431 30.002 29.6955 30.0306 29.346C30.0583 29.0068 30.0576 28.5932 30.0576 28.1127H29.1735ZM26.3446 30.9416V31.8257C26.8251 31.8257 27.2387 31.8264 27.5779 31.7987C27.9274 31.7701 28.275 31.7071 28.6095 31.5366L28.2081 30.7489L27.8068 29.9612C27.7631 29.9835 27.674 30.0168 27.4339 30.0364C27.1834 30.0569 26.8543 30.0576 26.3446 30.0576V30.9416ZM28.9808 29.9762L28.1931 29.5749C28.1084 29.7412 27.9731 29.8765 27.8068 29.9612L28.2081 30.7489L28.6095 31.5366C29.1085 31.2823 29.5143 30.8766 29.7685 30.3776L28.9808 29.9762ZM26.3446 13.2607V14.1447C26.8543 14.1447 27.1834 14.1454 27.4339 14.1659C27.674 14.1855 27.7631 14.2188 27.8068 14.2411L28.2081 13.4534L28.6095 12.6657C28.275 12.4953 27.9274 12.4322 27.5779 12.4037C27.2387 12.3759 26.8251 12.3766 26.3446 12.3766V13.2607ZM29.1735 16.0896H30.0576C30.0576 15.6091 30.0583 15.1955 30.0306 14.8564C30.002 14.5069 29.939 14.1592 29.7685 13.8247L28.9808 14.2261L28.1931 14.6274C28.2154 14.6711 28.2487 14.7602 28.2683 15.0003C28.2888 15.2508 28.2895 15.5799 28.2895 16.0896H29.1735ZM28.2081 13.4534L27.8068 14.2411C27.9731 14.3258 28.1084 14.4611 28.1931 14.6274L28.9808 14.2261L29.7685 13.8247C29.5143 13.3257 29.1085 12.92 28.6095 12.6657L28.2081 13.4534ZM19.6258 13.2607V12.3766C19.1453 12.3766 18.7317 12.3759 18.3926 12.4037C18.0431 12.4322 17.6954 12.4953 17.3609 12.6657L17.7623 13.4534L18.1636 14.2411C18.2073 14.2188 18.2964 14.1855 18.5365 14.1659C18.787 14.1454 19.1161 14.1447 19.6258 14.1447V13.2607ZM16.7969 16.0896H17.6809C17.6809 15.5799 17.6816 15.2508 17.7021 15.0003C17.7217 14.7602 17.755 14.6711 17.7773 14.6274L16.9896 14.2261L16.2019 13.8247C16.0315 14.1592 15.9684 14.5069 15.9399 14.8564C15.9121 15.1955 15.9128 15.6091 15.9128 16.0896H16.7969ZM17.7623 13.4534L17.3609 12.6657C16.8619 12.92 16.4562 13.3257 16.2019 13.8247L16.9896 14.2261L17.7773 14.6274C17.862 14.4611 17.9973 14.3258 18.1636 14.2411L17.7623 13.4534ZM22.9852 26.9634V27.8475H22.9941V26.9634V26.0794H22.9852V26.9634ZM23.4272 26.9634H22.5432C22.5432 26.7193 22.7411 26.5214 22.9852 26.5214V27.4054V28.2895C23.7176 28.2895 24.3113 27.6958 24.3113 26.9634H23.4272ZM22.9852 27.4054V26.5214C23.2293 26.5214 23.4272 26.7193 23.4272 26.9634H22.5432H21.6591C21.6591 27.6958 22.2528 28.2895 22.9852 28.2895V27.4054ZM22.5432 26.9634H23.4272C23.4272 27.2075 23.2293 27.4054 22.9852 27.4054V26.5214V25.6374C22.2528 25.6374 21.6591 26.2311 21.6591 26.9634H22.5432ZM22.9852 26.5214V27.4054C22.7411 27.4054 22.5432 27.2075 22.5432 26.9634H23.4272H24.3113C24.3113 26.2311 23.7176 25.6374 22.9852 25.6374V26.5214Z" fill="white"/>
</g>
</g>
<defs>
<filter id="filter0_dii_236_12725" x="-2.92063e-05" y="-1.46031e-05" width="45.9703" height="45.9705" filterUnits="userSpaceOnUse" color-interpolation-filters="sRGB">
<feFlood flood-opacity="0" result="BackgroundImageFix"/>
<feColorMatrix in="SourceAlpha" type="matrix" values="0 0 0 0 0 0 0 0 0 0 0 0 0 0 0 0 0 0 127 0" result="hardAlpha"/>
<feOffset dy="0.884048"/>
<feGaussianBlur stdDeviation="0.884048"/>
<feColorMatrix type="matrix" values="0 0 0 0 0.0392157 0 0 0 0 0.0496732 0 0 0 0 0.0705882 0 0 0 0.05 0"/>
<feBlend mode="normal" in2="BackgroundImageFix" result="effect1_dropShadow_236_12725"/>
<feBlend mode="normal" in="SourceGraphic" in2="effect1_dropShadow_236_12725" result="shape"/>
<feColorMatrix in="SourceAlpha" type="matrix" values="0 0 0 0 0 0 0 0 0 0 0 0 0 0 0 0 0 0 127 0" result="hardAlpha"/>
<feOffset dy="-1.7681"/>
<feComposite in2="hardAlpha" operator="arithmetic" k2="-1" k3="1"/>
<feColorMatrix type="matrix" values="0 0 0 0 0.0392157 0 0 0 0 0.0496732 0 0 0 0 0.0705882 0 0 0 0.05 0"/>
<feBlend mode="normal" in2="shape" result="effect2_innerShadow_236_12725"/>
<feColorMatrix in="SourceAlpha" type="matrix" values="0 0 0 0 0 0 0 0 0 0 0 0 0 0 0 0 0 0 127 0" result="hardAlpha"/>
<feMorphology radius="0.884048" operator="erode" in="SourceAlpha" result="effect3_innerShadow_236_12725"/>
<feOffset/>
<feComposite in2="hardAlpha" operator="arithmetic" k2="-1" k3="1"/>
<feColorMatrix type="matrix" values="0 0 0 0 0.0392157 0 0 0 0 0.0496732 0 0 0 0 0.0705882 0 0 0 0.18 0"/>
<feBlend mode="normal" in2="effect2_innerShadow_236_12725" result="effect3_innerShadow_236_12725"/>
</filter>
<clipPath id="clip0_236_12725">
<rect width="21.2171" height="21.2171" fill="white" transform="translate(12.3765 11.4926)"/>
</clipPath>
</defs>
</svg>
