<svg width="40" height="40" viewBox="0 0 40 40" fill="none" xmlns="http://www.w3.org/2000/svg">
  <path d="M20 6C12.28 6 6 12.28 6 20C6 22.85 6.86 25.5 8.34 27.68L6.5 33.5L12.54 31.72C14.64 33.06 17.22 33.88 20 33.88C27.72 33.88 34 27.6 34 19.88C34 12.28 27.72 6 20 6Z" fill="#25D366"/>
  <path d="M27.5 23.5C27.2 22.9 26.3 22.4 25.2 22.1C24.1 21.8 23.3 22 22.8 22.5C22.3 23 21.8 23.5 21.3 23.3C20.8 23.1 19.3 22.3 17.8 20.8C16.3 19.3 15.5 17.8 15.3 17.3C15.1 16.8 15.6 16.3 16.1 15.8C16.6 15.3 16.8 14.5 16.5 13.4C16.2 12.3 15.7 11.4 15.1 11.1C14.5 10.8 13.5 11 12.7 11.8C11.9 12.6 11 14.1 11.5 16.3C12 18.5 13.5 21 16 23.5C18.5 26 21 27.5 23.2 28C25.4 28.5 26.9 27.6 27.7 26.8C28.5 26 28.7 25 28.4 24.4C28.1 23.8 27.8 24.1 27.5 23.5Z" fill="white"/>
</svg>
